<?xml version="1.0" encoding="UTF-8" standalone="no"?>
<svg
   version="1.0"
   width="1408.000000pt"
   height="736.000000pt"
   viewBox="0 0 1408.000000 736.000000"
   preserveAspectRatio="xMidYMid meet"
   id="svg270"
   xmlns="http://www.w3.org/2000/svg"
   xmlns:svg="http://www.w3.org/2000/svg">
  <defs
     id="defs274" />
  <g
     transform="translate(0.000000,736.000000) scale(0.100000,-0.100000)"
     fill="#000000"
     stroke="none"
     id="g268">
    <path
       id="path6"
       d="m 6775.8545,5630.166 c -17.3,-7.2461 -32.6612,-10.8748 -45.8496,-11.5576 v -4.6143 c 0,-35.9996 -29.0098,-63.999 -65.0098,-63.999 -12,0 -31.9896,-10.0019 -43.9892,-22.0019 -20,-18 -23.003,-27.9981 -18.003,-67.9981 l 5.9912,-46.9922 L 6450,5365.9961 c -148.9996,-45 -163.9984,-47.001 -232.998,-41.001 -73,7 -75.001,6.0088 -101.001,-20.9912 -30,-33 -46.0059,-79.999 -36.0059,-108.999 4,-11 25.0069,-32.0069 47.0069,-47.0069 30.9996,-20.9996 52.9935,-53.0052 102.9931,-145.0048 88.9996,-167.9996 146.0098,-262.9981 185.0098,-307.9981 l 33.999,-39.9902 -10.0049,39.9902 c -21,76.9996 -190.9994,395.9994 -243.999,453.999 -49.9999,56 -94.9951,115.0059 -94.9951,126.0059 0,16 28.9951,1.9928 34.9951,-17.0068 6,-22 6.9961,-20.9873 15.9961,8.0127 5,18.9996 19.0059,35.9931 36.0059,42.9931 25.9996,12 30.0052,11.001 55.0048,-18.999 26,-32 25.9991,-32.0055 78.9991,-21.0059 96.9996,21 324.9886,101.0069 347.9882,122.0069 l 22.002,21.0058 -19.9951,21.9873 c -35,37 -20.9951,76.0108 25.0049,76.0108 39.9996,0 74.9912,39.9961 80.9912,90.9961 1.2058,10.4506 -0.4164,19.514 -1.1426,29.165 z" />
    <path
       id="path8"
       d="M 6984.624,5667.9736 6979.9951,5650 c -19,-71.9995 20.0005,-150 75,-150 49,0 58.0005,-52.0049 11.001,-70.0049 -38,-14 -22.9917,-46.9961 28.0078,-60.9961 22,-6 58.0034,-15.0058 78.0029,-21.0058 30,-9 41.9883,-7.9942 62.9883,6.0058 14,9 25.0049,18.0059 25.0049,21.0059 0,2 -27,8.9961 -60,15.9961 l -60,11.997 6.0059,37.002 c 9,54.9995 -26.0054,109.9951 -70.0049,109.9951 -14,0 -26.9995,8.9981 -33.999,22.9981 -7.0596,15.06 -12.3606,32.3865 -15.3809,47.2119 -20.1502,9.9055 -36.622,25.7653 -41.9971,47.7685 z" />
    <path
       d="M7268 5351 c-16 -9 -28 -18 -28 -21 0 -6 131 -47 209 -65 53 -13 101 -5 101 17 0 9 31 11 54 2 9 -3 16 -12 16 -19 0 -8 8 -11 20 -8 25 7 25 23 0 51 -29 31 -63 37 -98 16 -32 -18 -34 -18 -182 24 -60 17 -67 17 -92 3z"
       id="path10" />
    <path
       d="M7583 5187 c-32 -17 -93 -117 -188 -306 -66 -134 -87 -185 -101 -255 l-17 -88 61 -59 c34 -32 62 -64 62 -71 0 -9 -3 -9 -12 0 -16 16 -28 15 -28 -3 0 -8 -4 -15 -10 -15 -25 0 -50 -45 -50 -92 0 -26 4 -48 8 -48 5 0 17 -7 28 -16 18 -15 17 -15 -13 -10 -28 5 -33 2 -33 -13 0 -11 -2 -26 -6 -34 -4 -11 6 -14 53 -11 67 3 113 -4 113 -16 0 -9 -42 -30 -95 -48 -28 -10 -27 -10 21 -11 55 -1 74 -13 74 -48 0 -20 5 -23 38 -23 40 0 86 -19 83 -34 -2 -5 2 -12 8 -16 18 -11 2 -38 -27 -45 -15 -4 -86 -9 -157 -10 -157 -4 -225 -13 -232 -31 -6 -17 15 -46 28 -39 14 9 57 -6 63 -21 3 -8 2 -22 -3 -32 -50 -100 -71 -125 -71 -83 0 12 -4 21 -9 21 -6 0 -6 -12 -1 -30 8 -29 -2 -83 -20 -103 -9 -11 -5 41 5 66 4 9 4 34 -1 55 l-7 37 -8 -52 c-3 -28 -16 -65 -28 -81 -11 -17 -21 -43 -21 -59 0 -19 3 -24 9 -14 5 7 7 21 4 30 -2 10 3 23 11 30 13 11 15 9 13 -21 -1 -18 -9 -40 -18 -48 -20 -18 -72 -120 -65 -127 2 -3 22 21 42 52 32 48 39 54 46 38 6 -13 7 -10 4 11 -2 17 3 41 13 55 16 25 16 24 27 -54 l11 -80 1 102 c1 79 6 113 21 148 11 25 25 45 30 45 18 0 13 -105 -9 -188 -23 -90 -85 -248 -97 -245 -4 1 -16 5 -26 8 -13 6 -16 3 -11 -9 3 -9 10 -16 15 -16 5 0 9 -7 9 -15 0 -8 -5 -15 -11 -15 -6 0 -9 -6 -6 -12 2 -7 -2 -24 -9 -38 -7 -14 -20 -43 -29 -65 -10 -22 -22 -51 -29 -64 -14 -30 -10 -53 15 -98 14 -24 18 -45 14 -64 -4 -18 -2 -29 4 -29 6 0 11 -8 11 -19 0 -10 7 -24 15 -31 8 -7 15 -17 15 -23 0 -6 6 -18 14 -26 8 -9 18 -29 22 -45 5 -23 4 -27 -7 -22 -8 4 -6 1 4 -7 9 -8 18 -29 18 -48 1 -19 3 -26 6 -16 7 26 23 20 38 -15 16 -39 11 -52 -15 -36 -10 7 -17 16 -14 20 3 4 -2 5 -11 2 -8 -4 -26 1 -40 10 -14 9 -25 13 -25 9 0 -13 14 -28 28 -29 6 -1 18 -2 25 -2 20 -3 71 -53 84 -84 11 -25 11 -26 -28 -30 -51 -5 -56 -1 -68 51 -12 55 -25 68 -16 16 4 -22 8 -44 9 -50 0 -5 -20 -11 -46 -13 -27 -2 -48 1 -48 6 0 5 -23 5 -52 1 -66 -9 -203 -11 -211 -3 -3 4 -2 16 4 28 8 16 6 15 -13 -5 -18 -21 -32 -26 -60 -25 -21 0 -38 4 -38 9 -1 72 1 80 33 112 17 18 33 39 35 45 4 17 64 91 70 86 7 -8 -19 -76 -29 -76 -6 0 -7 -5 -4 -10 4 -6 -3 -43 -15 -81 -30 -101 -18 -96 16 6 25 77 32 88 69 110 23 14 33 24 23 25 -9 0 -20 -4 -23 -10 -9 -14 -25 -12 -25 3 0 6 7 24 14 40 13 23 13 27 0 27 -8 0 -14 -5 -14 -11 0 -5 -4 -8 -8 -5 -5 3 -30 -23 -55 -58 -26 -35 -54 -69 -63 -77 -15 -12 -16 -10 -11 26 3 22 10 81 16 130 6 50 13 99 15 110 3 11 5 33 5 49 1 21 5 27 16 22 8 -3 15 0 15 6 0 6 7 20 17 30 9 10 11 18 6 18 -6 0 -13 -7 -17 -15 -3 -8 -10 -15 -16 -15 -21 0 -9 28 38 86 26 32 55 70 64 83 15 21 18 22 24 8 9 -25 33 -20 44 9 14 35 12 41 -4 18 -8 -10 -16 -17 -18 -14 -2 3 -11 20 -21 39 -17 32 -17 34 5 69 19 31 22 33 29 16 7 -17 8 -17 8 -2 1 25 -22 108 -30 108 -3 0 -2 -17 4 -39 9 -33 8 -42 -12 -70 -12 -17 -25 -31 -29 -31 -7 0 -27 31 -59 89 -8 14 -11 31 -9 38 3 7 0 12 -7 10 -6 -1 -13 9 -15 23 -5 35 -22 50 -22 20 0 -46 -3 -65 -13 -78 -8 -11 -12 -11 -18 0 -6 9 -9 6 -9 -10 0 -19 3 -21 19 -12 18 9 19 6 18 -50 -1 -33 -5 -60 -8 -60 -4 0 -9 -22 -13 -50 -4 -27 -11 -50 -16 -50 -12 0 -13 93 -1 106 4 5 6 26 4 47 -6 41 -24 48 -45 18 -7 -10 -17 -20 -22 -22 -15 -6 -18 -121 -5 -146 7 -13 19 -23 27 -23 10 0 13 -7 8 -22 -3 -13 -6 -29 -6 -37 0 -8 -6 -11 -15 -7 -18 7 -21 -1 -30 -71 -3 -34 -2 -53 5 -53 5 0 10 22 10 50 0 28 4 50 9 50 17 0 18 -13 6 -85 -7 -38 -13 -60 -14 -47 -2 38 -21 24 -20 -15 0 -53 -3 -73 -11 -68 -9 6 -81 -90 -85 -112 -1 -10 -8 -17 -14 -15 -6 1 -11 -4 -11 -10 0 -7 -11 -26 -25 -43 l-25 -30 14 48 c8 26 20 54 26 62 10 12 9 15 -4 15 -11 0 -14 4 -9 13 4 6 6 22 4 35 -1 12 7 64 19 116 12 52 20 100 18 108 -3 7 -13 -30 -23 -82 l-19 -95 -8 58 c-4 34 -3 68 3 84 5 14 7 28 4 31 -14 15 -19 -20 -17 -132 l3 -124 -48 -40 c-26 -23 -44 -45 -39 -49 4 -4 23 9 42 30 19 20 36 37 39 37 14 0 0 -25 -42 -73 -27 -30 -57 -70 -67 -88 -23 -42 -13 -31 43 44 47 62 65 72 55 30 -10 -43 -21 -60 -56 -85 -42 -28 -74 -58 -65 -58 13 0 87 52 87 61 0 18 19 8 26 -13 6 -19 8 -17 20 17 7 21 20 45 29 54 15 15 16 12 13 -34 -3 -49 -4 -50 -43 -63 -22 -7 -42 -17 -45 -22 -3 -5 -30 -12 -59 -16 -50 -6 -54 -6 -47 11 6 18 6 18 -12 2 -18 -16 -42 -23 -42 -12 0 20 47 98 75 125 34 33 50 65 20 40 -24 -20 -18 0 34 123 27 64 47 118 45 120 -3 2 3 33 12 68 9 35 21 88 27 117 9 44 13 51 29 46 10 -3 18 -1 18 5 0 6 -4 11 -10 11 -5 0 -10 5 -10 12 0 6 3 8 7 5 3 -4 15 1 26 10 19 18 20 17 13 -9 l-6 -28 47 7 c60 7 68 13 20 13 -33 0 -37 3 -37 24 0 14 4 27 9 30 5 3 8 35 8 70 -1 35 1 62 6 59 4 -2 7 6 7 17 0 12 10 35 21 52 17 23 19 32 9 38 -10 6 -11 24 -6 71 7 69 20 94 31 60 3 -12 11 -18 17 -15 6 4 8 -1 4 -14 -5 -14 -1 -21 14 -25 26 -7 26 -3 -11 56 -24 39 -29 57 -25 81 4 17 6 44 6 60 0 15 4 33 8 40 14 17 25 99 12 91 -5 -3 -10 -15 -10 -25 0 -10 -7 -23 -16 -28 -11 -6 -13 -12 -6 -16 7 -4 7 -17 1 -39 -5 -17 -9 -44 -9 -59 0 -35 -17 -37 -26 -3 -3 14 -11 22 -17 18 -6 -4 -8 2 -5 15 4 15 2 19 -8 15 -22 -8 -17 -32 16 -73 17 -21 27 -41 22 -44 -4 -2 -9 -24 -11 -48 -2 -49 -8 -59 -17 -32 -3 10 -10 28 -15 39 l-10 20 7 -20 c23 -76 10 -174 -40 -314 -9 -24 -16 -52 -16 -62 0 -23 -26 -25 -34 -2 -4 9 -2 30 4 47 17 53 48 289 43 328 -3 21 -2 46 2 55 6 16 8 15 21 -7 11 -17 13 -19 9 -5 -10 32 -42 166 -50 208 -4 27 -3 37 4 32 6 -3 11 -1 11 4 0 6 9 11 20 11 11 0 20 -5 20 -12 0 -9 3 -9 12 0 7 7 29 12 51 12 34 0 38 2 35 23 -3 20 -11 23 -72 29 -37 4 -121 9 -185 11 -88 4 -127 10 -163 26 -27 11 -48 24 -48 29 0 18 37 40 86 51 39 9 54 19 63 37 14 32 14 77 -1 92 -6 6 -10 14 -7 16 6 7 114 10 125 4 19 -11 106 -1 115 13 8 12 10 12 18 -1 15 -22 24 -5 11 19 -14 26 -21 26 -55 -1 l-27 -21 6 21 c7 20 4 22 -35 22 -41 0 -42 1 -25 19 10 11 24 37 31 58 12 34 11 42 -8 77 -12 21 -33 43 -46 48 -18 6 -21 12 -13 20 9 9 18 8 38 -1 34 -15 39 -9 37 47 -1 49 -32 120 -77 181 -31 42 -31 40 -6 -51 27 -97 26 -114 -5 -122 -28 -7 -65 -59 -65 -92 0 -28 36 -73 68 -85 24 -9 24 -10 7 -29 -9 -10 -40 -27 -67 -36 -27 -9 -58 -25 -69 -37 -21 -23 -25 -70 -9 -111 9 -24 8 -26 -21 -26 -69 0 -129 -56 -129 -120 0 -34 26 -75 57 -89 15 -7 76 -15 134 -18 103 -6 108 -7 119 -32 7 -14 15 -85 18 -158 4 -106 2 -139 -11 -172 -11 -26 -13 -41 -6 -43 8 -3 7 -22 -1 -63 -6 -33 -14 -82 -16 -110 -5 -45 -13 -62 -49 -111 -7 -10 -5 -22 6 -40 15 -25 14 -33 -8 -128 -33 -143 -47 -183 -120 -343 l-65 -142 -41 -6 c-25 -5 -52 -18 -70 -36 -27 -28 -28 -33 -23 -92 3 -34 7 -71 8 -82 1 -11 -2 -33 -6 -50 -6 -26 -4 -25 9 7 15 34 19 36 41 26 28 -13 29 -19 9 -62 -14 -29 -95 -118 -95 -104 0 3 7 22 15 41 15 35 20 65 10 55 -3 -2 -16 -34 -29 -71 -19 -53 -40 -84 -98 -147 -139 -149 -174 -280 -103 -384 23 -33 23 -37 7 -42 -9 -2 -37 -15 -62 -28 -64 -33 -92 -91 -98 -201 -4 -79 -3 -84 19 -98 44 -28 240 -61 513 -87 75 -7 115 -15 127 -26 13 -12 26 -14 46 -9 38 10 1044 12 1065 2 11 -4 29 -2 45 6 16 8 66 17 113 21 128 10 418 54 477 71 29 9 59 22 68 31 22 22 19 117 -6 192 -22 66 -44 88 -117 117 -46 19 -50 26 -27 45 8 7 22 37 31 66 33 113 -10 201 -194 397 -92 98 -163 193 -150 201 59 41 69 51 78 84 19 73 -33 162 -96 162 -15 0 -24 6 -24 16 0 8 -4 13 -8 10 -10 -6 -88 131 -127 224 -66 156 -143 502 -131 589 7 51 -3 129 -15 110 -23 -38 -22 264 1 352 l11 39 64 0 c36 0 65 -2 65 -4 0 -13 -103 -283 -111 -290 -11 -12 -12 -56 -1 -56 4 0 17 28 28 63 12 34 40 114 63 177 l40 115 48 5 c56 7 88 22 104 51 14 28 14 81 -1 108 -16 31 -69 61 -109 61 -30 0 -33 2 -27 23 19 64 18 73 -9 105 -15 18 -34 32 -44 32 -20 0 -111 56 -111 68 0 4 14 16 31 26 21 12 29 24 26 36 -3 12 2 20 15 23 15 4 18 11 13 29 -12 41 -41 73 -70 76 -26 3 -27 5 -20 50 4 26 16 74 27 107 28 85 186 397 231 456 33 44 36 52 24 69 -10 15 -16 16 -34 7z m-1148 -795 c-3 -3 -11 0 -18 7 -9 10 -8 11 6 5 10 -3 15 -9 12 -12z m935 -26 c0 -2 -9 -6 -20 -9 -11 -3 -20 -1 -20 4 0 5 9 9 20 9 11 0 20 -2 20 -4z m-977 -153 c-7 -2 -19 -2 -25 0 -7 3 -2 5 12 5 14 0 19 -2 13 -5z m862 -792 c7 -84 -7 -151 -32 -151 -7 0 -13 -9 -13 -20 0 -11 0 -23 -1 -27 0 -5 7 -9 15 -11 9 -2 16 3 16 12 0 22 20 70 26 63 3 -3 10 -37 15 -76 6 -39 21 -112 34 -162 13 -51 20 -88 16 -83 -9 10 -56 151 -66 197 -5 25 -9 28 -36 23 -16 -2 -35 -9 -42 -14 -7 -5 -21 -11 -31 -13 -18 -4 -18 -5 -3 -21 15 -15 14 -18 -15 -47 -24 -23 -28 -31 -15 -31 16 0 22 -18 19 -60 0 -8 4 -17 9 -21 6 -3 1 -33 -12 -74 l-21 -69 -19 25 c-22 29 -24 39 -5 39 7 0 16 8 19 19 3 12 -1 18 -12 17 -11 -1 -22 16 -35 57 -15 48 -16 62 -6 87 10 25 18 30 46 30 18 0 36 5 40 11 5 8 -6 9 -37 4 l-44 -7 19 21 c11 11 16 21 12 21 -4 0 2 14 14 30 12 17 19 30 15 30 -3 0 1 10 9 22 9 12 16 28 16 36 0 7 13 41 29 76 17 35 36 82 43 104 7 23 16 42 19 42 4 0 10 -36 14 -79z m-485 -71 c0 -11 5 -20 12 -20 6 0 8 -3 5 -7 -4 -3 0 -15 10 -25 13 -14 13 -18 2 -18 -10 -1 -9 -4 4 -11 9 -5 17 -16 17 -23 0 -8 7 -19 15 -26 20 -17 19 -23 -10 -54 -14 -16 -33 -39 -41 -52 -9 -13 -20 -21 -25 -18 -5 3 -13 -6 -18 -19 -18 -46 -28 -37 -24 21 5 90 24 185 41 205 15 16 14 17 -1 11 -14 -5 -17 0 -17 25 0 21 5 31 15 31 8 0 15 -9 15 -20z m-90 -66 c0 -19 -4 -33 -9 -29 -5 3 -12 1 -16 -5 -3 -5 -1 -10 4 -10 6 0 11 -18 11 -40 0 -30 -5 -42 -21 -50 -18 -10 -20 -9 -18 12 2 13 0 29 -5 36 -4 7 -4 12 1 11 19 -3 25 2 14 15 -8 10 -8 22 3 47 13 32 25 49 33 49 2 0 3 -16 3 -36z m-134 -14 c-3 -16 -9 -43 -12 -59 -4 -21 -10 -28 -20 -24 -15 6 -13 18 12 80 18 41 27 43 20 3z m714 -121 c0 -6 -4 -7 -10 -4 -5 3 -10 11 -10 16 0 6 5 7 10 4 6 -3 10 -11 10 -16z m-9 -31 c27 -54 99 -265 99 -293 0 -14 3 -16 9 -7 5 9 22 -18 50 -80 24 -51 44 -101 46 -110 2 -9 12 -29 22 -44 18 -28 18 -28 -2 -20 -13 4 -6 -7 19 -33 43 -44 44 -57 1 -41 -23 9 -26 8 -21 -5 7 -18 5 -18 -31 -3 -15 6 -34 12 -42 14 -7 1 -18 7 -24 13 -6 6 -18 11 -28 11 -25 0 -69 39 -69 61 0 13 5 18 13 14 6 -4 5 -1 -4 7 -8 7 -18 21 -22 31 -3 9 -12 17 -20 17 -8 0 -14 13 -15 33 -8 95 -8 92 17 95 25 4 68 -39 103 -102 9 -17 17 -25 18 -17 0 11 3 11 17 0 23 -18 -38 60 -67 86 -33 30 -42 51 -26 64 11 9 20 1 44 -41 17 -29 49 -73 71 -98 l41 -45 -31 50 c-17 28 -40 61 -50 75 -44 58 -79 115 -79 130 0 25 -34 51 -69 52 -17 1 -31 6 -31 12 0 6 -4 4 -10 -4 -15 -24 -25 -2 -11 24 8 13 10 30 6 36 -4 7 -4 15 1 19 22 15 31 47 22 73 -7 20 -5 31 9 47 9 12 19 21 20 21 1 0 12 -19 24 -42z m-556 -50 c0 -46 -4 -62 -14 -60 -7 1 -10 -2 -6 -8 3 -5 2 -17 -3 -27 -7 -12 -10 -7 -13 25 -3 22 0 38 5 35 5 -3 7 8 4 26 -2 17 -1 31 4 31 4 0 8 9 8 20 0 11 4 20 8 20 4 0 8 -28 7 -62z m481 -13 c-4 -14 -11 -25 -16 -25 -14 0 -12 44 2 58 16 16 22 0 14 -33z m-484 -129 c-7 -17 -8 -26 -1 -28 7 -2 3 -42 -10 -111 -12 -60 -21 -121 -21 -137 0 -16 -4 -32 -10 -35 -6 -3 -9 21 -9 62 1 37 0 87 -1 110 -1 23 6 56 15 73 9 18 12 29 6 26 -17 -11 -13 8 7 30 10 10 16 28 14 39 -3 16 -1 18 9 8 9 -10 10 -18 1 -37z m496 -157 c13 -4 34 -98 25 -112 -8 -13 -23 14 -23 40 0 12 -8 27 -17 32 -10 6 -15 11 -11 11 4 0 -1 15 -12 33 -26 43 -25 51 3 23 13 -13 28 -25 35 -27z m-564 -70 c7 -97 6 -107 -10 -105 -9 0 -19 -5 -21 -11 -3 -7 2 -13 11 -13 19 0 21 -36 3 -65 -9 -15 -25 -21 -64 -23 -69 -5 -71 16 -8 54 46 26 58 47 13 22 -47 -26 -58 -20 -58 34 0 39 7 60 33 101 32 48 89 119 93 114 1 -1 5 -50 8 -108z m622 -77 c6 -10 15 -33 19 -51 6 -28 15 -37 61 -57 64 -28 70 -44 12 -34 -23 5 -48 6 -55 3 -8 -3 -13 2 -13 13 0 11 -11 43 -25 72 -14 30 -25 58 -25 63 0 15 14 10 26 -9z m-596 -113 c0 -5 -4 -9 -10 -9 -5 0 -10 7 -10 16 0 8 5 12 10 9 6 -3 10 -10 10 -16z m51 -69 c20 0 20 -1 -2 -31 -12 -18 -31 -34 -41 -37 -23 -6 -23 -18 -1 -26 11 -5 13 -10 6 -17 -5 -5 -17 -7 -26 -4 -18 7 -13 27 14 63 12 16 16 34 13 55 -4 26 -3 29 6 15 6 -10 20 -18 31 -18z m370 0 c6 0 8 -4 5 -9 -4 -5 12 -5 35 0 29 7 45 6 55 -2 8 -6 14 -8 14 -3 0 5 20 9 45 10 33 1 45 -3 41 -11 -2 -7 1 -18 7 -24 8 -8 3 -11 -20 -11 -18 0 -35 5 -38 10 -10 16 -38 12 -31 -5 5 -13 -17 -15 -160 -15 -91 0 -173 -4 -183 -10 -20 -10 -128 -16 -137 -7 -3 3 -1 15 6 26 10 20 19 21 151 21 104 0 138 -3 133 -12 -5 -8 -2 -9 10 -5 10 4 22 7 28 7 6 0 6 6 -2 15 -14 17 -3 38 17 31 8 -3 19 -6 24 -6z m-881 -6 c0 -3 -6 -12 -14 -19 -10 -11 -16 -11 -26 -2 -10 9 -12 9 -8 -3 4 -11 -2 -15 -23 -15 -30 0 -33 3 -21 21 11 17 92 33 92 18z m810 -4 c0 -6 -50 -10 -129 -10 -76 0 -132 4 -136 10 -4 6 42 10 129 10 84 0 136 -4 136 -10z m398 -13 c3 -16 -3 -18 -47 -16 -54 3 -64 18 -20 30 38 11 63 6 67 -14z m104 9 c16 -12 16 -14 -7 -26 -14 -7 -28 -10 -32 -7 -3 4 -1 7 5 7 7 0 12 5 12 12 0 9 -3 9 -12 0 -18 -18 -46 -14 -58 8 -10 19 -8 20 32 20 24 0 51 -7 60 -14z m48 0 c0 -10 10 -13 35 -11 19 2 39 6 44 9 12 8 41 -21 41 -40 0 -8 -4 -14 -10 -14 -5 0 -10 7 -10 16 0 12 -3 14 -13 6 -9 -8 -20 -7 -40 3 -15 8 -27 10 -27 4 0 -16 -20 -10 -27 9 -4 9 -11 20 -17 24 -7 5 -4 8 7 8 9 0 17 -6 17 -14z m-906 -4 c-7 -4 -14 -18 -15 -32 -3 -19 -11 -26 -31 -28 -16 -2 -28 -7 -28 -12 0 -4 9 -6 20 -3 11 3 20 1 20 -4 0 -5 -9 -16 -20 -26 -16 -13 -20 -14 -20 -3 0 8 -5 16 -12 18 -9 3 -8 15 5 49 14 36 14 41 1 24 -8 -11 -18 -32 -21 -47 -5 -24 -10 -28 -41 -28 l-35 0 22 19 c12 10 21 23 20 27 -1 5 -1 19 0 32 1 21 5 22 74 22 39 0 67 -4 61 -8z m-299 -21 c-4 -14 0 -23 15 -31 31 -17 24 -30 -16 -30 -34 0 -36 1 -30 28 l6 27 -16 -22 c-19 -26 -49 -32 -40 -8 6 17 -9 21 -19 5 -9 -15 -45 -12 -45 4 0 7 10 17 23 21 47 17 73 23 100 24 24 1 27 -2 22 -18z m1073 -32 c15 -24 16 -24 -21 -33 -15 -3 -26 -2 -25 3 2 5 -1 9 -7 9 -5 0 -9 -4 -7 -9 3 -14 -16 -11 -43 7 -14 9 -25 12 -25 6 0 -6 8 -13 18 -15 9 -3 1 -5 -18 -6 -26 0 -31 2 -20 9 13 8 13 10 -1 10 -9 0 -19 -6 -22 -13 -3 -8 -29 -13 -73 -15 -65 -3 -70 -1 -81 23 -11 25 -11 25 40 25 34 0 57 -6 70 -17 11 -10 17 -12 12 -4 -12 21 11 29 76 25 33 -2 70 1 82 6 31 12 31 12 45 -11z m32 11 c0 -6 10 -8 23 -5 12 3 43 7 68 9 41 3 46 2 42 -14 -7 -25 -98 -34 -130 -13 -24 16 -31 33 -13 33 6 0 10 -5 10 -10z m-1280 -25 c0 -8 -9 -15 -19 -15 -10 0 -21 7 -25 15 -4 11 1 15 19 15 16 0 25 -6 25 -15z m810 6 c0 -25 -38 -34 -169 -40 -103 -4 -137 -3 -130 5 5 7 44 15 86 19 42 4 86 11 97 15 28 12 116 12 116 1z m90 2 c0 -5 3 -18 6 -29 5 -21 3 -21 -38 -13 -23 4 -47 8 -51 9 -4 0 -3 9 3 20 8 14 21 20 45 20 19 0 35 -3 35 -7z m-520 -53 c0 -5 -4 -10 -10 -10 -5 0 -10 5 -10 10 0 6 5 10 10 10 6 0 10 -4 10 -10z m1002 -18 c-18 -15 -32 -31 -32 -36 0 -5 9 -1 20 9 11 10 20 13 20 7 0 -6 -4 -14 -10 -17 -5 -3 -10 -11 -10 -17 0 -6 9 -3 19 6 23 21 31 11 24 -27 -7 -35 -15 -34 -52 8 -35 41 -44 42 -90 14 -18 -11 -34 -19 -36 -17 -1 2 -7 13 -14 25 -18 35 -14 46 16 40 15 -3 36 -1 46 5 14 7 22 6 31 -3 8 -9 7 -10 -9 -5 -15 5 -17 4 -9 -4 9 -9 24 -5 60 14 62 32 67 32 26 -2z m-1272 4 c0 -3 -4 -8 -10 -11 -5 -3 -10 -1 -10 4 0 6 5 11 10 11 6 0 10 -2 10 -4z m123 -12 c12 -4 13 -11 4 -35 -6 -16 -15 -29 -19 -29 -12 0 -97 55 -98 63 0 8 91 10 113 1z m-153 -30 c0 -17 -12 -18 -28 -2 -18 18 -15 27 8 21 11 -3 20 -12 20 -19z m262 -1 c-2 -16 2 -23 12 -23 9 0 16 5 16 10 0 6 11 10 25 10 19 0 23 4 18 17 -5 13 -2 15 11 10 10 -4 24 -7 32 -7 8 0 14 -5 14 -11 0 -6 -9 -9 -20 -6 -11 3 -20 1 -20 -4 0 -5 4 -9 9 -9 20 0 20 -37 0 -97 -11 -34 -25 -63 -30 -63 -18 0 -21 31 -5 49 25 27 19 37 -7 12 -36 -33 -60 -19 -52 29 8 46 -16 62 -49 31 -41 -38 -64 15 -31 69 4 6 23 10 43 8 32 -3 37 -6 34 -25z m822 -21 c16 -78 -19 -100 -54 -33 -21 43 -19 67 8 74 30 8 37 1 46 -41z m31 18 c17 -33 19 -50 6 -50 -8 0 -31 52 -31 71 0 17 10 9 25 -21z m-1143 -45 c-6 -14 -16 -25 -21 -25 -13 0 -21 41 -14 69 l6 23 20 -21 c18 -17 19 -24 9 -46z m711 41 c15 -10 27 -20 27 -21 0 -2 -30 -20 -67 -39 -42 -23 -74 -34 -86 -30 -13 4 -17 2 -13 -5 8 -12 -105 -68 -158 -78 -28 -6 -28 -5 -21 28 13 59 37 109 52 109 13 0 13 3 2 16 -29 36 -20 39 110 39 106 0 130 -3 154 -19z m226 7 c-13 -17 -13 -17 13 0 34 22 49 22 41 0 -5 -12 -3 -14 8 -9 8 4 5 0 -5 -8 -11 -9 -16 -16 -10 -16 5 0 1 -5 -9 -11 -9 -6 -15 -15 -11 -20 3 -6 -2 -16 -12 -23 -11 -8 -13 -15 -6 -19 5 -4 22 13 36 38 15 25 31 45 36 45 5 0 12 -20 16 -45 3 -25 10 -48 15 -51 10 -6 95 31 104 46 10 16 25 1 18 -17 -4 -10 -2 -14 4 -10 5 3 17 -9 26 -27 13 -29 14 -37 2 -52 -13 -18 -15 -17 -40 10 -21 22 -24 31 -13 37 10 7 10 11 0 21 -9 9 -12 9 -12 -1 0 -8 -7 -11 -19 -8 -14 3 -18 -1 -18 -18 0 -15 4 -22 13 -18 14 5 54 -51 54 -77 0 -8 -17 -32 -37 -55 l-38 -40 35 33 c20 17 39 32 42 32 16 0 37 -147 24 -168 -4 -8 -3 -11 5 -10 7 2 16 -8 20 -22 7 -24 7 -24 8 -2 1 12 4 22 7 22 3 0 39 -16 79 -35 69 -33 76 -40 110 -100 43 -77 56 -87 19 -14 -14 28 -23 53 -20 56 10 10 110 -54 134 -85 l25 -32 -71 0 c-76 0 -242 36 -248 54 -1 6 -8 31 -14 55 -6 23 -14 41 -16 38 -3 -3 0 -24 6 -47 6 -23 10 -43 8 -45 -6 -6 -108 19 -108 27 0 4 -7 8 -15 8 -8 0 -15 8 -15 18 0 12 -2 14 -8 4 -12 -18 -123 25 -130 51 -3 12 -7 15 -12 8 -4 -8 -34 1 -90 27 l-84 38 80 58 c69 50 83 57 114 52 27 -4 31 -3 17 5 -11 7 -16 17 -12 29 8 24 -31 51 -62 44 -31 -8 -29 10 2 24 26 12 33 28 14 34 -9 3 -9 10 0 26 23 44 -7 21 -37 -28 -17 -27 -37 -50 -44 -50 -7 0 -42 14 -76 30 -85 40 -104 38 -23 -3 89 -45 92 -51 47 -131 -37 -66 -37 -66 -64 -52 -71 38 -72 41 -7 74 33 17 69 38 80 47 11 8 -22 -5 -73 -30 l-93 -46 -55 31 c-30 17 -54 33 -54 35 0 2 7 11 16 20 9 9 14 19 10 22 -3 4 -12 1 -18 -5 -17 -17 -53 -15 -89 4 l-30 15 163 83 c89 46 178 98 196 115 31 28 40 31 99 31 61 0 64 -1 52 -17z m88 -5 c-3 -8 -6 -5 -6 6 -1 11 2 17 5 13 3 -3 4 -12 1 -19z m-877 -58 c9 0 10 -11 5 -37 -10 -56 -5 -58 -79 24 -53 60 -43 84 18 43 24 -17 49 -30 56 -30z m1130 56 c0 -3 -16 -17 -35 -32 -24 -18 -39 -24 -46 -17 -7 7 0 17 23 31 31 20 58 28 58 18z m20 -32 c0 -22 -62 -106 -71 -97 -4 5 -10 20 -14 34 -5 22 0 29 32 52 45 31 53 32 53 11z m-1230 -46 c62 -76 64 -78 54 -88 -14 -14 -119 94 -111 114 10 24 20 20 57 -26z m1372 -89 c17 -21 35 -36 39 -33 18 11 119 -99 148 -161 51 -106 82 -246 35 -153 -43 85 -177 309 -181 304 -3 -3 12 -36 34 -73 71 -120 163 -299 163 -317 0 -56 -91 -4 -209 119 -49 52 -92 91 -95 86 -3 -4 8 -21 25 -37 17 -16 44 -46 61 -67 l30 -38 -43 17 c-55 21 -62 28 -83 87 -10 26 -33 70 -51 97 -23 34 -31 56 -28 75 3 15 -1 33 -9 43 -42 47 -42 61 -3 118 l37 54 50 -42 c27 -23 63 -58 80 -79z m-52 81 c0 -12 -3 -12 -16 2 -9 9 -13 21 -9 28 9 14 25 -5 25 -30z m-1540 -185 c-68 -102 -125 -183 -128 -180 -5 5 53 107 121 213 22 34 37 65 34 68 -3 3 -13 -9 -22 -28 -10 -18 -25 -42 -35 -53 -20 -22 -140 -248 -140 -262 1 -4 9 8 20 27 23 42 27 32 5 -11 -13 -25 -19 -28 -35 -19 -21 11 -20 29 2 89 5 13 6 26 4 28 -3 3 -10 -15 -17 -39 -15 -53 -29 -72 -42 -59 -13 13 29 98 59 117 12 9 20 22 18 29 -3 8 41 63 109 133 63 66 120 130 127 142 11 20 13 21 28 7 14 -14 3 -33 -108 -202z m433 195 c-3 -11 -12 -20 -19 -20 -16 0 -16 2 -8 24 9 24 33 20 27 -4z m791 -21 c-8 -13 -24 -1 -24 18 0 13 3 13 15 3 8 -7 12 -16 9 -21z m-1028 -26 c21 -27 42 -53 46 -59 4 -6 -2 -20 -16 -33 l-24 -22 -26 57 c-52 113 -43 137 20 57z m149 28 c5 -9 -24 -46 -31 -39 -2 2 -1 14 3 26 6 23 18 29 28 13z m-181 -91 l28 -65 -129 -123 c-149 -143 -211 -197 -219 -189 -9 9 33 81 158 273 67 101 124 181 128 177 4 -4 19 -37 34 -73z m225 56 c13 -15 5 -46 -13 -45 -6 0 -19 4 -29 7 -16 7 -16 9 -2 30 19 26 28 27 44 8z m55 -15 c3 -5 -1 -14 -9 -21 -13 -10 -15 -9 -15 9 0 21 14 28 24 12z m52 -36 c16 -13 17 -16 4 -25 -8 -5 -21 -8 -28 -5 -8 3 -12 0 -10 -7 6 -16 -38 -39 -57 -31 -9 3 -15 -1 -15 -11 0 -9 -7 -16 -15 -16 -23 0 -18 10 20 47 19 19 40 31 46 27 8 -4 9 1 4 15 -5 16 -2 21 12 21 11 0 28 -7 39 -15z m-95 -18 c-10 -9 -11 -8 -5 6 3 10 9 15 12 12 3 -3 0 -11 -7 -18z m996 -12 c21 -44 10 -56 -23 -24 -16 16 -23 31 -18 42 10 26 23 20 41 -18z m-1053 -27 c-3 -5 -14 -2 -25 8 -10 9 -16 21 -13 26 3 5 14 2 25 -8 10 -9 16 -21 13 -26z m213 27 c8 -8 19 -13 24 -10 5 4 9 1 9 -5 0 -6 12 -15 28 -21 36 -13 152 -82 152 -90 0 -4 -9 -9 -21 -12 -12 -3 -38 6 -68 24 -27 17 -55 31 -62 33 -8 1 -25 8 -39 16 -23 12 -24 12 -11 -3 7 -9 10 -24 7 -33 -5 -14 -4 -15 8 -5 12 10 23 10 53 -1 38 -13 73 -37 73 -49 0 -7 -144 -79 -157 -79 -14 1 -64 75 -54 78 6 2 11 8 11 13 0 6 -4 7 -10 4 -14 -9 -12 11 7 72 9 29 21 53 26 53 5 0 7 7 3 15 -7 19 1 19 21 0z m-299 -37 c-16 -47 -26 -55 -37 -27 -7 19 -5 27 12 41 32 25 37 22 25 -14z m61 8 c14 -17 5 -41 -28 -70 -30 -28 -36 -13 -17 39 19 48 27 53 45 31z m1166 -165 c19 -39 35 -73 35 -75 0 -10 -141 65 -144 77 -2 7 -9 39 -15 72 -6 33 -14 71 -17 85 -11 45 102 -82 141 -159z m-985 157 c-1 -21 -38 -98 -48 -98 -5 0 -17 12 -27 26 -16 25 -16 26 16 55 34 31 59 38 59 17z m-282 -57 c7 -21 6 -36 -5 -60 -9 -17 -18 -29 -21 -26 -3 2 -19 -4 -36 -14 -17 -10 -76 -42 -131 -71 -77 -41 -94 -47 -75 -27 58 58 244 227 251 227 4 0 12 -13 17 -29z m809 13 c10 -9 12 -18 7 -22 -6 -4 -27 -20 -47 -36 -21 -16 -39 -27 -42 -25 -4 5 54 99 62 99 2 0 12 -7 20 -16z m-660 -36 c-6 -22 -6 -22 9 -3 14 19 15 18 47 -13 19 -19 28 -36 22 -40 -5 -4 -15 -16 -21 -27 -12 -21 -82 -74 -100 -75 -14 0 -44 65 -49 106 -4 25 -1 31 13 30 11 -1 16 5 14 18 -3 13 1 17 12 13 8 -3 18 -2 21 3 4 6 13 10 22 10 11 0 14 -6 10 -22z m467 -44 c57 -32 64 -42 34 -53 -18 -6 -31 -2 -63 23 -22 17 -42 32 -45 34 -3 2 19 21 26 22 1 0 22 -12 48 -26z m-14 -69 c0 -7 -43 -31 -95 -54 l-95 -42 -30 33 c-16 18 -30 36 -30 40 0 5 35 25 78 47 l77 38 48 -25 c26 -14 47 -31 47 -37z m1029 1 c22 -45 28 -111 11 -121 -6 -4 -10 6 -10 22 0 15 -11 58 -23 95 -25 73 -12 75 22 4z m-1635 -53 c-13 -49 -29 -96 -34 -105 -6 -10 -10 -25 -10 -33 0 -8 -7 -15 -16 -15 -8 0 -12 4 -9 10 3 5 8 19 10 29 10 54 39 150 53 178 28 56 30 26 6 -64z m290 58 l28 -29 -42 -22 c-23 -12 -44 -20 -46 -17 -2 2 1 19 7 38 6 19 12 40 15 47 5 17 6 16 38 -17z m-324 14 c0 -2 -26 -35 -58 -72 -31 -38 -72 -87 -91 -110 -29 -38 -37 -43 -74 -43 -61 0 -89 10 -82 28 4 12 3 13 -10 2 -12 -10 -15 -10 -15 2 0 13 106 81 260 167 53 30 70 36 70 26z m104 -41 c10 -25 17 -46 15 -48 -81 -61 -93 -67 -85 -38 2 9 12 43 20 75 9 31 20 57 24 57 4 0 15 -21 26 -46z m163 32 c-3 -8 -11 -32 -18 -54 -6 -23 -24 -49 -40 -61 l-28 -21 -18 26 c-17 26 -17 27 22 58 22 17 46 39 55 48 19 20 34 23 27 4z m517 -14 c20 -5 20 -5 0 -13 -18 -7 -18 -7 0 -14 11 -5 21 -3 25 4 6 9 20 7 54 -8 51 -22 60 -32 25 -25 -21 4 -21 3 2 -7 107 -51 180 -94 180 -108 0 -12 -52 -21 -122 -21 -45 0 -57 -3 -52 -12 6 -10 3 -9 -8 0 -12 10 -53 13 -148 13 -121 -1 -132 0 -126 16 6 15 5 15 -13 -1 -13 -12 -27 -16 -43 -11 -28 9 -88 64 -88 81 0 7 25 22 55 33 31 12 74 30 96 42 65 33 76 19 33 -45 -20 -30 -34 -60 -32 -66 2 -6 21 16 43 50 40 62 59 71 61 30 1 -24 18 -40 67 -66 42 -22 32 0 -26 59 -44 44 -51 56 -43 70 6 10 17 15 26 11 8 -3 24 -9 34 -12z m-809 -99 c-30 -101 -39 -113 -90 -113 -25 0 -45 4 -45 10 0 13 141 173 147 166 3 -2 -3 -31 -12 -63z m419 33 c14 -19 26 -37 26 -39 0 -2 -18 -12 -40 -22 -22 -10 -38 -20 -36 -22 2 -3 22 5 44 16 l39 20 32 -33 c17 -17 31 -35 31 -40 0 -4 -61 -6 -135 -5 -146 2 -144 1 -124 58 11 30 96 98 125 100 7 1 23 -14 38 -33z m566 -10 c0 -2 -9 -2 -20 1 -11 3 -20 9 -20 15 0 5 9 4 20 -2 11 -6 20 -12 20 -14z m-811 -33 c10 -20 6 -25 -46 -57 -56 -35 -93 -46 -93 -27 0 8 123 112 126 108 1 -1 6 -12 13 -24z m874 7 c26 -11 49 -25 52 -30 4 -6 10 -8 13 -6 4 2 37 -4 72 -13 46 -13 66 -23 69 -36 3 -16 -2 -17 -40 -10 -24 4 -54 8 -67 9 -13 0 -31 10 -40 22 -9 11 -38 33 -64 48 -27 15 -48 29 -48 31 0 8 5 6 53 -15z m-812 -57 c-9 -17 -10 -17 -16 0 -4 9 -1 25 6 34 13 15 14 15 17 0 2 -9 -1 -24 -7 -34z m-570 -6 c-10 -9 -11 -8 -5 6 3 10 9 15 12 12 3 -3 0 -11 -7 -18z m549 -19 c0 -11 -42 -20 -81 -16 l-34 3 45 27 c41 26 46 26 58 11 6 -9 12 -20 12 -25z m1390 2 c18 -14 21 -20 9 -20 -9 0 -24 9 -34 20 -23 26 -8 26 25 0z m-241 -16 c2 -2 -10 -5 -27 -5 -18 -1 -38 -2 -44 -3 -7 -1 -14 6 -16 16 -3 14 2 15 40 7 23 -6 44 -12 47 -15z m306 -44 c-3 -5 -10 -10 -16 -10 -5 0 -9 5 -9 10 0 6 7 10 16 10 8 0 12 -4 9 -10z m-506 -26 c2 -2 -36 -3 -85 -2 -75 1 -81 2 -39 7 46 6 114 3 124 -5z m249 9 c-10 -2 -26 -2 -35 0 -10 3 -2 5 17 5 19 0 27 -2 18 -5z m-1168 -13 c0 -5 -4 -10 -10 -10 -5 0 -10 5 -10 10 0 6 5 10 10 10 6 0 10 -4 10 -10z m315 -1 c-4 -6 -61 -9 -156 -8 -82 1 -146 6 -143 10 3 5 73 9 155 9 102 0 148 -3 144 -11z m35 -4 c0 -8 -4 -15 -10 -15 -5 0 -10 7 -10 15 0 8 5 15 10 15 6 0 10 -7 10 -15z m130 5 c0 -5 -20 -10 -45 -10 -25 0 -45 5 -45 10 0 6 20 10 45 10 25 0 45 -4 45 -10z m255 0 c4 -6 -35 -10 -110 -10 -75 0 -114 4 -110 10 3 6 52 10 110 10 58 0 107 -4 110 -10z m-1211 -19 c10 -15 -19 -31 -60 -34 -34 -2 -39 1 -36 18 1 14 -3 11 -14 -10 -9 -16 -17 -31 -18 -32 -6 -7 -46 12 -46 21 0 31 157 65 174 37z m154 -11 c13 0 20 -4 17 -10 -3 -5 -42 -10 -87 -10 -73 0 -79 2 -67 16 10 13 24 15 64 10 27 -3 60 -6 73 -6z m1122 -25 c0 -3 -75 -5 -166 -5 -107 0 -163 3 -159 10 4 6 62 10 141 10 95 0 133 3 128 11 -3 6 8 3 25 -5 17 -9 31 -19 31 -21z m128 20 c-10 -7 -110 -13 -102 -6 11 11 61 18 87 12 10 -2 16 -5 15 -6z m247 5 c4 -6 -10 -10 -37 -9 -40 1 -41 2 -13 9 43 11 43 11 50 0z m249 4 c9 -3 16 -14 16 -23 0 -13 -8 -16 -40 -13 -31 3 -40 8 -40 23 0 20 31 26 64 13z m-1139 -23 c-4 -7 -64 -10 -168 -10 -182 2 -151 13 46 17 89 2 127 0 122 -7z m106 -8 c9 -10 2 -13 -40 -13 -47 0 -61 7 -45 23 12 11 74 4 85 -10z m42 3 c4 -10 1 -13 -9 -9 -7 3 -14 9 -14 14 0 14 17 10 23 -5z m1055 5 c10 -6 7 -10 -12 -13 -18 -4 -26 -1 -26 8 0 16 18 18 38 5z m-1615 -8 c-7 -2 -21 -2 -30 0 -10 3 -4 5 12 5 17 0 24 -2 18 -5z m-178 -13 c-9 -14 8 -12 24 3 11 10 13 10 7 0 -4 -8 -1 -13 8 -13 11 0 16 -9 16 -30 0 -29 -1 -30 -50 -30 -54 0 -61 7 -30 35 32 29 14 30 -24 2 -30 -23 -40 -26 -85 -20 -28 3 -48 9 -46 13 5 8 107 36 155 44 14 2 26 4 28 5 2 0 0 -3 -3 -9z m69 -6 c12 -12 35 -16 87 -15 69 0 71 0 65 -22 -3 -12 -6 -25 -6 -29 0 -5 -31 -8 -70 -8 -60 0 -70 3 -70 18 0 9 -7 29 -14 45 -17 31 -14 34 8 11z m-296 -6 c-7 -20 -48 -23 -48 -4 0 11 9 16 26 16 16 0 24 -5 22 -12z m1665 -22 c58 -7 74 -15 56 -27 -19 -12 -109 -11 -109 1 0 6 -4 10 -10 10 -5 0 -10 -7 -10 -15 0 -12 -15 -15 -73 -15 -69 0 -74 2 -85 25 -7 14 -12 28 -12 30 0 3 36 5 80 5 47 0 80 -4 80 -10 0 -5 5 -10 11 -10 6 0 8 9 4 23 -6 19 -6 20 6 6 8 -9 36 -19 62 -23z m-1082 4 c10 0 25 -13 34 -30 l16 -30 -80 0 c-44 0 -82 4 -86 10 -3 5 -3 21 1 36 6 25 9 26 52 20 25 -3 53 -6 63 -6z m805 0 c6 0 16 -11 22 -24 15 -33 9 -35 -157 -35 -78 -1 -144 -2 -148 -3 -10 -3 -47 23 -57 40 -6 10 2 12 36 11 61 -3 240 9 247 16 3 4 15 4 26 1 11 -3 25 -6 31 -6z m549 0 c-3 -5 -15 -10 -25 -10 -10 0 -22 5 -25 10 -4 6 7 10 25 10 18 0 29 -4 25 -10z m-2137 -46 c-27 -30 -31 -26 -17 15 9 25 14 29 24 21 11 -9 10 -16 -7 -36z m985 40 c3 -3 1 -17 -5 -30 -10 -21 -18 -24 -69 -24 -55 0 -59 2 -74 30 l-16 30 79 0 c43 0 81 -3 85 -6z m1331 -46 c4 -22 3 -38 -2 -38 -14 0 -35 57 -28 76 9 24 22 7 30 -38z m-1127 12 c12 -25 12 -25 -38 -28 -61 -4 -68 1 -43 29 14 16 15 21 4 17 -8 -2 -19 -14 -25 -26 -8 -18 -18 -22 -57 -22 -53 0 -53 -1 -36 35 11 25 14 26 97 23 80 -3 86 -5 98 -28z m49 5 l23 -25 -23 0 c-15 0 -27 9 -34 25 -8 18 -9 25 0 25 6 0 21 -11 34 -25z m1032 -6 c17 -27 5 -40 -14 -15 -8 11 -14 16 -14 11 0 -5 7 -17 17 -27 25 -28 11 -30 -40 -8 -54 24 -61 40 -18 40 17 0 33 5 36 10 9 15 19 12 33 -11z m-2179 2 c11 -7 4 -14 -27 -30 -56 -29 -66 -27 -47 9 16 31 45 39 74 21z m2041 -21 c0 -5 8 -10 18 -10 9 0 46 -14 82 -32 56 -27 62 -32 40 -36 -26 -4 -260 48 -260 59 0 3 24 10 53 16 28 5 55 11 60 11 4 1 7 -2 7 -8z m-1902 -9 c17 0 32 -4 32 -8 0 -7 -94 -73 -104 -73 -9 0 7 40 20 51 8 6 14 16 14 22 0 6 -7 1 -16 -11 -8 -12 -20 -20 -25 -17 -5 4 -9 -1 -9 -9 0 -8 -4 -18 -10 -21 -6 -4 -10 10 -10 34 l0 40 38 -3 c20 -2 52 -4 70 -5z m-128 -51 c0 -43 -6 -46 -69 -34 -27 6 -29 9 -19 22 14 17 68 52 81 52 4 0 7 -18 7 -40z m299 30 c46 -5 85 -11 86 -12 2 -2 6 -25 10 -52 l8 -49 -115 6 c-63 4 -136 10 -163 14 l-49 6 54 49 c61 53 53 51 169 38z m1425 -6 c3 -8 2 -12 -4 -9 -6 3 -10 10 -10 16 0 14 7 11 14 -7z m66 -4 c0 -5 -9 -10 -20 -10 -11 0 -20 5 -20 10 0 6 9 10 20 10 11 0 20 -4 20 -10z m200 -19 c93 -23 107 -29 75 -31 -22 0 -58 -5 -80 -10 -29 -6 -12 -7 60 -4 l100 4 -55 -14 c-72 -18 -280 -49 -287 -42 -3 3 -3 12 0 21 5 10 21 15 54 16 26 0 57 5 68 10 13 6 -2 7 -47 3 -66 -5 -67 -5 -74 20 -8 33 10 56 45 56 14 -1 78 -14 141 -29z m-1482 11 c24 -16 -5 -69 -44 -82 -20 -7 -37 -10 -39 -8 -2 1 -6 24 -10 51 l-7 47 43 0 c24 0 50 -4 57 -8z m1179 0 c8 -5 8 -12 -2 -25 -13 -18 -15 -18 -39 -2 -14 10 -26 21 -26 26 0 11 50 12 67 1z m-1004 -9 c8 -8 -120 -72 -145 -73 -21 0 -22 6 -7 49 11 31 12 31 78 31 37 0 71 -3 74 -7z m187 -2 c0 -5 10 -11 23 -13 20 -3 19 -5 -13 -25 -19 -12 -36 -21 -37 -19 -7 6 10 66 18 66 5 0 9 -4 9 -9z m130 -2 c33 -1 32 -2 -37 -36 -85 -41 -114 -40 -53 2 37 25 40 30 23 37 -13 6 -12 7 7 3 14 -2 41 -5 60 -6z m624 -18 c16 -16 25 -34 22 -40 -4 -6 0 -11 8 -11 9 0 16 -2 16 -4 0 -2 3 -11 6 -20 4 -11 1 -16 -11 -16 -17 0 -45 23 -45 37 0 5 -70 9 -156 8 l-156 0 -26 30 -25 30 104 6 c234 12 232 12 263 -20z m-855 -7 c6 -14 9 -29 6 -33 -2 -5 -33 -11 -67 -15 -35 -4 -83 -9 -108 -12 -39 -4 -42 -3 -25 8 30 19 158 78 171 78 6 0 16 -12 23 -26z m54 20 c3 -4 1 -16 -5 -27 -10 -20 -11 -20 -24 -2 -7 10 -11 22 -8 26 6 10 28 12 37 3z m359 -26 l30 -32 -31 -9 c-17 -4 -79 -6 -138 -5 l-106 3 69 37 c91 48 135 50 176 6z m78 -3 c29 -30 31 -35 16 -41 -20 -8 -60 19 -84 54 -14 21 -13 22 10 22 14 0 38 -14 58 -35z m290 -59 c0 -20 -23 -26 -106 -26 -58 0 -74 3 -74 15 0 10 17 15 68 18 37 2 77 4 90 5 13 1 22 -4 22 -12z m-786 -11 c-5 -12 -24 -15 -82 -15 -80 0 -89 9 -19 21 77 12 107 11 101 -6z m493 -2 c6 -18 -94 -26 -242 -18 -126 7 -176 20 -102 27 90 9 341 2 344 -9z"
       id="path12" />
    <path
       d="M6771 3144 c0 -11 3 -14 6 -6 3 7 2 16 -1 19 -3 4 -6 -2 -5 -13z"
       id="path14" />
    <path
       d="M6740 3140 c-9 -6 -10 -10 -3 -10 6 0 15 5 18 10 8 12 4 12 -15 0z"
       id="path16" />
    <path
       d="M7375 2618 c3 -14 8 -34 12 -44 5 -13 3 -16 -10 -11 -29 11 -19 0 28 -32 25 -17 45 -26 45 -21 0 5 -9 14 -19 20 -11 5 -29 34 -41 62 -11 29 -18 41 -15 26z"
       id="path18" />
    <path
       d="M7420 2615 c13 -14 26 -25 28 -25 3 0 -5 11 -18 25 -13 14 -26 25 -28 25 -3 0 5 -11 18 -25z"
       id="path20" />
    <path
       d="M6574 2744 c-3 -10 -19 -54 -35 -96 -31 -83 -35 -98 -19 -82 13 13 71 186 65 192 -2 3 -7 -4 -11 -14z"
       id="path22" />
    <path
       d="M7060 2400 c0 -5 5 -10 10 -10 6 0 10 5 10 10 0 6 -4 10 -10 10 -5 0 -10 -4 -10 -10z"
       id="path24" />
    <path
       d="M6711 2196 c2 -2 15 -9 29 -15 24 -11 24 -11 6 3 -16 13 -49 24 -35 12z"
       id="path26" />
    <path
       d="M7088 2253 c7 -3 16 -2 19 1 4 3 -2 6 -13 5 -11 0 -14 -3 -6 -6z"
       id="path28" />
    <path
       d="M7074 2178 c-8 -12 21 -38 43 -38 16 0 16 5 3 31 -12 21 -35 25 -46 7z"
       id="path30" />
    <path
       d="M7262 2098 c2 -14 11 -24 23 -25 11 -2 14 0 8 3 -7 3 -13 14 -13 25 0 10 -5 19 -11 19 -6 0 -9 -10 -7 -22z"
       id="path32" />
    <path
       d="M7265 2040 c3 -5 8 -10 11 -10 2 0 4 5 4 10 0 6 -5 10 -11 10 -5 0 -7 -4 -4 -10z"
       id="path34" />
    <path
       d="M7281 1977 c-1 -45 -3 -48 -23 -42 -23 6 -23 6 1 -13 15 -12 22 -25 18 -36 -4 -10 -1 -16 7 -16 8 0 16 5 18 12 3 8 20 3 53 -15 26 -15 50 -25 52 -23 2 2 -18 16 -46 32 -28 15 -51 31 -51 36 0 4 -6 8 -13 8 -9 0 -12 11 -9 34 2 18 2 42 -1 52 -3 11 -5 -3 -6 -29z"
       id="path36" />
    <path
       d="M7301 1844 c0 -11 3 -14 6 -6 3 7 2 16 -1 19 -3 4 -6 -2 -5 -13z"
       id="path38" />
    <path
       d="M7308 1785 c2 -14 6 -25 8 -25 2 0 4 11 4 25 0 14 -4 25 -9 25 -4 0 -6 -11 -3 -25z"
       id="path40" />
    <path
       d="M7521 1985 c-1 -5 8 -24 18 -41 10 -17 21 -39 22 -49 2 -10 12 -19 22 -21 15 -2 15 2 -5 35 -35 58 -57 87 -57 76z"
       id="path42" />
    <path
       d="M6428 1823 c7 -3 16 -2 19 1 4 3 -2 6 -13 5 -11 0 -14 -3 -6 -6z"
       id="path44" />
    <path
       d="M7085 1760 c3 -5 11 -10 16 -10 6 0 7 5 4 10 -3 6 -11 10 -16 10 -6 0 -7 -4 -4 -10z"
       id="path46" />
    <path
       d="M7115 1681 c-3 -6 1 -11 10 -11 8 0 43 -9 76 -20 34 -12 64 -18 67 -15 3 3 -4 8 -16 12 -12 3 -22 9 -22 13 0 4 -18 10 -39 14 -22 3 -46 9 -54 12 -8 3 -18 1 -22 -5z"
       id="path48" />
    <path
       d="M7085 1650 c3 -5 10 -10 16 -10 5 0 9 5 9 10 0 6 -7 10 -16 10 -8 0 -12 -4 -9 -10z"
       id="path50" />
    <path
       d="M6540 1635 c-14 -8 -20 -14 -15 -14 6 0 21 6 35 14 14 8 21 14 15 14 -5 0 -21 -6 -35 -14z"
       id="path52" />
    <path
       d="M7345 1650 c-8 -13 -1 -24 14 -19 6 3 7 10 2 18 -6 10 -10 10 -16 1z"
       id="path54" />
    <path
       d="M7360 5115 c0 -8 2 -15 4 -15 2 0 6 7 10 15 3 8 1 15 -4 15 -6 0 -10 -7 -10 -15z"
       id="path56" />
    <path
       d="M7337 5048 c-16 -43 -76 -198 -116 -296 -12 -29 -17 -51 -11 -47 5 3 10 10 10 15 0 5 13 37 29 72 16 35 37 83 46 108 45 122 65 183 61 187 -2 2 -11 -15 -19 -39z"
       id="path58" />
    <path
       d="M7150 4600 c0 -5 5 -10 10 -10 6 0 10 5 10 10 0 6 -4 10 -10 10 -5 0 -10 -4 -10 -10z"
       id="path60" />
    <path
       d="M7137 4550 c-3 -11 -1 -20 4 -20 5 0 9 2 9 4 0 2 3 11 6 20 3 9 2 16 -4 16 -5 0 -12 -9 -15 -20z"
       id="path62" />
    <path
       d="M7480 4518 c0 -25 3 -29 10 -18 13 20 13 50 0 50 -5 0 -10 -15 -10 -32z"
       id="path64" />
    <path
       d="M7100 4480 c-13 -26 -27 -40 -40 -40 -11 0 -20 5 -20 10 0 6 4 9 9 8 5 -2 8 2 8 7 -2 10 -216 11 -243 1 -12 -5 -13 -10 -4 -27 11 -20 18 -21 133 -18 67 2 128 0 135 -5 6 -4 18 -4 24 0 7 5 33 9 58 11 93 6 150 15 155 23 8 12 -64 42 -79 33 -6 -4 -20 -9 -31 -10 -11 -2 -24 -8 -29 -13 -5 -5 -17 -4 -30 3 -11 7 -22 13 -24 14 -2 1 1 11 8 22 7 14 7 21 1 21 -6 0 -20 -18 -31 -40z"
       id="path66" />
    <path
       d="M6590 4473 c-73 -5 -90 -12 -90 -33 0 -18 7 -19 88 -17 85 3 87 3 87 27 0 27 -8 29 -85 23z"
       id="path68" />
    <path
       d="M6700 4445 c0 -22 4 -25 35 -25 22 0 35 5 35 13 0 20 -22 37 -47 37 -18 0 -23 -6 -23 -25z"
       id="path70" />
    <path
       d="M6230 4395 c-7 -9 -10 -18 -7 -22 8 -7 37 15 37 28 0 14 -16 11 -30 -6z"
       id="path72" />
    <path
       d="M6535 4371 c-11 -18 21 -41 58 -41 33 0 67 23 53 37 -12 12 -104 15 -111 4z"
       id="path74" />
    <path
       d="M6678 4373 c7 -3 16 -2 19 1 4 3 -2 6 -13 5 -11 0 -14 -3 -6 -6z"
       id="path76" />
    <path
       d="M7121 4368 c-19 -5 -42 -8 -50 -5 -20 5 -32 -8 -48 -52 -17 -47 -10 -49 16 -5 14 24 25 34 32 27 6 -6 32 -6 72 -1 34 5 81 7 103 4 38 -5 42 -3 47 19 4 26 -17 36 -26 13 -4 -10 -6 -10 -6 0 -1 15 -89 15 -140 0z"
       id="path78" />
    <path
       d="M6726 4357 c-19 -14 -19 -15 2 -26 41 -22 132 -7 107 18 -18 18 -89 24 -109 8z"
       id="path80" />
    <path
       d="M6890 4345 c28 -30 53 -32 88 -6 15 10 36 21 47 24 11 2 -20 5 -69 6 l-89 1 23 -25z"
       id="path82" />
    <path
       d="M6180 4335 c-18 -21 -3 -32 16 -13 10 9 12 18 6 22 -5 3 -15 -1 -22 -9z"
       id="path84" />
    <path
       d="M6250 4340 c19 -13 30 -13 30 0 0 6 -10 10 -22 10 -19 0 -20 -2 -8 -10z"
       id="path86" />
    <path
       d="M6988 4323 c7 -3 16 -2 19 1 4 3 -2 6 -13 5 -11 0 -14 -3 -6 -6z"
       id="path88" />
    <path
       d="M6220 4313 c0 -4 5 -15 10 -23 8 -13 10 -13 10 2 0 9 -4 20 -10 23 -5 3 -10 3 -10 -2z"
       id="path90" />
    <path
       d="M7065 4233 c-27 -2 -53 -10 -57 -16 -6 -9 -8 -8 -8 3 0 9 -3 11 -10 4 -17 -17 0 -52 28 -55 25 -4 166 5 150 9 -4 1 -3 13 2 27 7 18 6 25 -3 25 -6 0 -21 2 -32 4 -11 1 -42 1 -70 -1z"
       id="path92" />
    <path
       d="M7224 4222 c-6 -4 -16 -17 -22 -28 -10 -19 -9 -22 14 -27 20 -3 27 1 35 20 5 13 9 29 9 34 0 11 -20 12 -36 1z"
       id="path94" />
    <path
       d="M6606 4195 c14 -22 23 -25 75 -25 47 0 60 4 69 19 5 11 10 22 10 25 0 3 -38 6 -85 6 l-85 0 16 -25z"
       id="path96" />
    <path
       d="M6780 4210 c0 -5 5 -10 10 -10 6 0 10 5 10 10 0 6 -4 10 -10 10 -5 0 -10 -4 -10 -10z"
       id="path98" />
    <path
       d="M6827 4213 c-12 -11 -7 -23 7 -17 7 3 20 -1 27 -9 16 -16 86 -29 93 -18 3 4 -2 17 -10 29 -12 17 -25 22 -63 22 -26 0 -51 -3 -54 -7z"
       id="path100" />
    <path
       d="M6761 4181 c-10 -7 -10 -10 -1 -16 6 -4 16 -3 22 3 13 13 -4 23 -21 13z"
       id="path102" />
    <path
       d="M6811 4154 c0 -11 3 -14 6 -6 3 7 2 16 -1 19 -3 4 -6 -2 -5 -13z"
       id="path104" />
    <path
       d="M6468 4128 c-2 -6 -22 -12 -44 -13 -46 -2 -84 -13 -84 -25 0 -4 73 -9 162 -9 154 -1 162 0 145 16 -14 14 -32 17 -97 14 -70 -2 -79 -1 -74 13 3 9 4 16 1 16 -3 0 -7 -5 -9 -12z"
       id="path106" />
    <path
       d="M6820 4120 c0 -6 -27 -10 -61 -10 -55 0 -59 -1 -45 -16 9 -8 28 -14 43 -13 47 4 73 -1 73 -12 0 -6 -12 -10 -27 -9 -55 4 -84 0 -78 -10 3 -6 -4 -10 -16 -10 -15 0 -20 -3 -13 -10 14 -14 174 -18 174 -4 0 5 -7 19 -15 30 -8 10 -15 22 -15 26 0 4 34 5 77 1 55 -4 74 -3 69 5 -19 31 -120 36 -155 8 -11 -9 -13 -7 -7 12 4 12 5 22 2 22 -3 0 -6 -4 -6 -10z m-25 -80 c3 -5 1 -10 -4 -10 -6 0 -11 5 -11 10 0 6 2 10 4 10 3 0 8 -4 11 -10z"
       id="path108" />
    <path
       d="M7130 4094 c0 -8 5 -12 10 -9 6 3 10 10 10 16 0 5 -4 9 -10 9 -5 0 -10 -7 -10 -16z"
       id="path110" />
    <path
       d="M7278 4093 c6 -2 18 -2 25 0 6 3 1 5 -13 5 -14 0 -19 -2 -12 -5z"
       id="path112" />
    <path
       d="M7288 4067 c-7 -8 -21 -12 -31 -9 -17 4 -18 2 -8 -17 7 -12 16 -19 22 -16 5 4 43 6 84 6 66 0 75 2 75 18 0 11 -9 21 -22 25 -40 10 -107 6 -120 -7z"
       id="path114" />
    <path
       d="M6011 4061 c-22 -4 -35 -12 -37 -23 -1 -10 2 -18 8 -18 6 0 8 7 4 15 -4 12 4 15 39 15 25 0 45 5 45 10 0 11 -6 11 -59 1z"
       id="path116" />
    <path
       d="M6375 4063 c-41 -9 -49 -13 -38 -24 5 -5 81 -12 167 -14 87 -3 162 -7 167 -10 5 -4 9 3 9 15 0 11 -6 22 -12 24 -20 6 -270 14 -293 9z"
       id="path118" />
    <path
       d="M7172 4054 c-32 -22 -27 -34 13 -34 38 0 59 25 34 41 -19 12 -21 11 -47 -7z"
       id="path120" />
    <path
       d="M6880 4040 c0 -17 7 -20 43 -20 31 0 49 6 62 20 18 20 17 20 -43 20 -55 0 -62 -2 -62 -20z"
       id="path122" />
    <path
       d="M7073 4040 c-32 -13 -28 -20 11 -20 21 0 36 6 40 15 6 17 -16 19 -51 5z"
       id="path124" />
    <path
       d="M7691 3995 c0 -18 28 -61 29 -44 0 8 -7 24 -15 35 -8 10 -14 15 -14 9z"
       id="path126" />
    <path
       d="M6200 3982 c0 -5 21 -9 48 -10 34 -1 42 2 27 8 -26 11 -75 12 -75 2z"
       id="path128" />
    <path
       d="M6075 3955 c10 -49 274 -591 275 -563 0 4 -35 78 -79 165 -43 87 -101 208 -128 268 -27 61 -55 121 -61 135 -12 25 -12 25 -7 -5z"
       id="path130" />
    <path
       d="M6690 3950 c0 -11 5 -20 10 -20 6 0 10 9 10 20 0 11 -4 20 -10 20 -5 0 -10 -9 -10 -20z"
       id="path132" />
    <path
       d="M6310 3950 c19 -13 30 -13 30 0 0 6 -10 10 -22 10 -19 0 -20 -2 -8 -10z"
       id="path134" />
    <path
       d="M6370 3940 c-12 -8 -11 -10 8 -10 12 0 22 5 22 10 0 13 -11 13 -30 0z"
       id="path136" />
    <path
       d="M6415 3930 c3 -5 11 -10 16 -10 6 0 7 5 4 10 -3 6 -11 10 -16 10 -6 0 -7 -4 -4 -10z"
       id="path138" />
    <path
       d="M7722 3890 c0 -19 2 -27 5 -17 2 9 2 25 0 35 -3 9 -5 1 -5 -18z"
       id="path140" />
    <path
       d="M6738 3893 c-10 -2 -18 -13 -18 -23 0 -15 11 -18 73 -22 39 -3 74 -3 76 -2 2 2 1 15 -3 29 -6 23 -11 25 -59 24 -28 -1 -60 -3 -69 -6z"
       id="path142" />
    <path
       d="M6984 3885 c-13 -34 2 -42 75 -39 40 2 71 -1 71 -7 0 -5 4 -9 8 -9 4 0 8 16 8 35 l0 35 -78 0 c-61 0 -80 -3 -84 -15z"
       id="path144" />
    <path
       d="M7660 3883 c0 -13 29 -38 35 -31 3 3 -4 13 -15 23 -11 10 -20 13 -20 8z"
       id="path146" />
    <path
       d="M7708 3842 c-27 -8 -48 -19 -48 -24 0 -15 73 4 94 23 23 22 17 22 -46 1z"
       id="path148" />
    <path
       d="M6679 3773 c2 -38 5 -131 7 -208 1 -77 3 -149 4 -160 l1 -20 9 20 c5 11 9 43 9 71 1 44 5 54 34 80 29 26 30 29 12 32 -38 7 -56 33 -54 77 5 92 -1 175 -13 175 -10 0 -12 -18 -9 -67z m46 -201 c0 -18 -20 -15 -23 4 -3 10 1 15 10 12 7 -3 13 -10 13 -16z"
       id="path150" />
    <path
       d="M6611 3814 c0 -11 3 -14 6 -6 3 7 2 16 -1 19 -3 4 -6 -2 -5 -13z"
       id="path152" />
    <path
       d="M7171 3814 c0 -11 3 -14 6 -6 3 7 2 16 -1 19 -3 4 -6 -2 -5 -13z"
       id="path154" />
    <path
       d="M7130 3799 c0 -5 5 -7 10 -4 6 3 10 8 10 11 0 2 -4 4 -10 4 -5 0 -10 -5 -10 -11z"
       id="path156" />
    <path
       d="M7016 3774 c-5 -14 -4 -15 9 -4 17 14 19 20 6 20 -5 0 -12 -7 -15 -16z"
       id="path158" />
    <path
       d="M7167 3773 c-10 -9 -9 -23 2 -23 5 0 11 7 15 15 5 15 -5 20 -17 8z"
       id="path160" />
    <path
       d="M7100 3709 c0 -5 5 -7 10 -4 6 3 10 8 10 11 0 2 -4 4 -10 4 -5 0 -10 -5 -10 -11z"
       id="path162" />
    <path
       d="M6810 3640 c0 -11 4 -20 9 -20 11 0 22 26 14 34 -12 12 -23 5 -23 -14z"
       id="path164" />
    <path
       d="M6780 3610 c0 -5 5 -10 10 -10 6 0 10 5 10 10 0 6 -4 10 -10 10 -5 0 -10 -4 -10 -10z"
       id="path166" />
    <path
       d="M6924 3538 l-29 -31 33 22 c17 12 32 27 32 32 0 14 -4 11 -36 -23z"
       id="path168" />
    <path
       d="M7008 3546 c-3 -15 -2 -29 2 -31 11 -7 19 30 10 45 -5 7 -9 2 -12 -14z"
       id="path170" />
    <path
       d="M6865 3540 c3 -5 8 -10 11 -10 2 0 4 5 4 10 0 6 -5 10 -11 10 -5 0 -7 -4 -4 -10z"
       id="path172" />
    <path
       d="M6870 3495 c0 -8 2 -15 4 -15 2 0 6 7 10 15 3 8 1 15 -4 15 -6 0 -10 -7 -10 -15z"
       id="path174" />
    <path
       d="M6846 3472 c-3 -5 3 -21 14 -33 22 -27 26 -16 6 20 -7 13 -16 19 -20 13z"
       id="path176" />
    <path
       d="M7006 3461 c-4 -7 -5 -15 -2 -18 9 -9 19 4 14 18 -4 11 -6 11 -12 0z"
       id="path178" />
    <path
       d="M6521 3444 c0 -11 3 -14 6 -6 3 7 2 16 -1 19 -3 4 -6 -2 -5 -13z"
       id="path180" />
    <path
       d="M6790 3430 c0 -5 5 -10 11 -10 5 0 7 5 4 10 -3 6 -8 10 -11 10 -2 0 -4 -4 -4 -10z"
       id="path182" />
    <path
       d="M6991 3406 c-7 -9 -8 -17 -2 -20 5 -3 7 -16 3 -28 l-5 -21 22 22 c23 23 25 51 5 58 -6 2 -16 -3 -23 -11z m29 -17 c0 -5 -4 -9 -10 -9 -5 0 -10 7 -10 16 0 8 5 12 10 9 6 -3 10 -10 10 -16z"
       id="path184" />
    <path
       d="M6612 3360 c0 -14 2 -19 5 -12 2 6 2 18 0 25 -3 6 -5 1 -5 -13z"
       id="path186" />
    <path
       d="M6360 3350 c0 -5 5 -10 10 -10 6 0 10 5 10 10 0 6 -4 10 -10 10 -5 0 -10 -4 -10 -10z"
       id="path188" />
    <path
       d="M7065 3330 c3 -5 11 -10 16 -10 6 0 7 5 4 10 -3 6 -11 10 -16 10 -6 0 -7 -4 -4 -10z"
       id="path190" />
    <path
       d="M6946 3305 c-8 -22 3 -40 16 -27 7 7 7 16 1 27 -9 16 -10 16 -17 0z"
       id="path192" />
    <path
       d="M7001 3305 c-1 -18 27 -47 41 -42 10 4 10 6 1 6 -7 1 -13 8 -13 17 0 8 -4 13 -9 10 -5 -4 -12 0 -14 6 -3 7 -6 9 -6 3z"
       id="path194" />
    <path
       d="M6917 3273 c-13 -13 -7 -32 8 -27 8 4 15 12 15 20 0 15 -12 19 -23 7z"
       id="path196" />
    <path
       d="M6570 3250 c0 -5 5 -10 10 -10 6 0 10 5 10 10 0 6 -4 10 -10 10 -5 0 -10 -4 -10 -10z"
       id="path198" />
    <path
       d="M6943 3243 c-7 -3 -13 -12 -13 -21 0 -15 2 -15 17 1 18 18 16 27 -4 20z"
       id="path200" />
    <path
       d="M6321 3204 c-6 -15 -9 -29 -7 -32 3 -2 10 8 16 23 14 36 7 43 -9 9z"
       id="path202" />
    <path
       d="M6926 3174 c-4 -9 -4 -19 -1 -22 2 -3 7 3 11 12 4 9 4 19 1 22 -2 3 -7 -3 -11 -12z"
       id="path204" />
    <path
       d="M6990 3151 c0 -5 5 -13 10 -16 6 -3 10 -2 10 4 0 5 -4 13 -10 16 -5 3 -10 2 -10 -4z"
       id="path206" />
    <path
       d="M6958 3143 c7 -3 16 -2 19 1 4 3 -2 6 -13 5 -11 0 -14 -3 -6 -6z"
       id="path208" />
    <path
       d="M6900 3131 c0 -6 5 -13 10 -16 6 -3 10 1 10 9 0 9 -4 16 -10 16 -5 0 -10 -4 -10 -9z"
       id="path210" />
    <path
       d="M6976 3105 c-4 -11 -13 -15 -26 -12 -13 3 -24 -3 -35 -19 -9 -14 -20 -22 -25 -19 -6 4 -10 -1 -10 -9 0 -21 27 -20 39 1 12 22 28 9 75 -61 34 -52 66 -86 66 -71 0 5 -17 31 -38 59 -57 75 -67 97 -51 107 7 4 19 3 26 -3 17 -14 17 3 0 26 -13 18 -14 18 -21 1z"
       id="path212" />
    <path
       d="M7010 3110 c0 -5 5 -10 10 -10 6 0 10 5 10 10 0 6 -4 10 -10 10 -5 0 -10 -4 -10 -10z"
       id="path214" />
    <path
       d="M6500 3096 c0 -7 -3 -29 -6 -47 -5 -26 -4 -31 5 -23 14 13 22 84 10 84 -5 0 -9 -6 -9 -14z"
       id="path216" />
    <path
       d="M6610 3100 c0 -5 5 -10 10 -10 6 0 10 5 10 10 0 6 -4 10 -10 10 -5 0 -10 -4 -10 -10z"
       id="path218" />
    <path
       d="M7471 3084 c0 -11 3 -14 6 -6 3 7 2 16 -1 19 -3 4 -6 -2 -5 -13z"
       id="path220" />
    <path
       d="M6577 3069 c7 -7 15 -10 18 -7 3 3 -2 9 -12 12 -14 6 -15 5 -6 -5z"
       id="path222" />
    <path
       d="M6857 3013 c-3 -5 1 -13 8 -20 10 -10 14 -9 18 1 8 21 -15 37 -26 19z"
       id="path224" />
    <path
       d="M7491 3004 c0 -11 3 -14 6 -6 3 7 2 16 -1 19 -3 4 -6 -2 -5 -13z"
       id="path226" />
    <path
       d="M6950 2940 c-18 -25 -19 -30 -6 -30 9 0 16 6 16 14 0 8 7 16 15 20 8 3 15 10 15 16 0 19 -19 10 -40 -20z"
       id="path228" />
    <path
       d="M6861 2934 c0 -11 3 -14 6 -6 3 7 2 16 -1 19 -3 4 -6 -2 -5 -13z"
       id="path230" />
    <path
       d="M6857 2903 c-4 -3 -7 -14 -7 -24 0 -29 -19 -32 -40 -7 -16 19 -19 20 -20 6 0 -9 7 -21 17 -26 9 -5 17 -20 18 -33 2 -24 25 -41 25 -18 0 7 14 0 32 -17 l31 -29 -26 36 c-15 20 -27 41 -27 47 0 22 23 61 33 55 6 -3 7 -1 3 5 -8 13 -29 16 -39 5z"
       id="path232" />
    <path
       d="M6550 2828 c-12 -22 -12 -22 6 -6 10 10 15 20 12 24 -4 3 -12 -5 -18 -18z"
       id="path234" />
    <path
       d="M6981 2831 c13 -11 26 -17 28 -15 5 5 -30 33 -43 34 -4 0 2 -9 15 -19z"
       id="path236" />
    <path
       d="M6517 2803 c-4 -3 -7 -11 -7 -17 0 -6 5 -5 12 2 6 6 9 14 7 17 -3 3 -9 2 -12 -2z"
       id="path238" />
    <path
       d="M7020 2800 c0 -5 9 -14 20 -20 11 -6 20 -7 20 -3 0 5 -9 14 -20 21 -11 7 -20 8 -20 2z"
       id="path240" />
    <path
       d="M6860 2750 c0 -5 5 -10 11 -10 5 0 7 5 4 10 -3 6 -8 10 -11 10 -2 0 -4 -4 -4 -10z"
       id="path242" />
    <path
       d="M7098 2738 c2 -10 8 -15 13 -12 14 8 11 31 -5 31 -8 0 -11 -8 -8 -19z"
       id="path244" />
    <path
       d="M6905 2731 c-6 -11 13 -26 22 -17 4 3 0 6 -8 7 -8 0 -6 4 6 9 16 7 17 9 3 9 -9 1 -19 -3 -23 -8z"
       id="path246" />
    <path
       d="M6950 2711 c0 -6 4 -13 10 -16 6 -3 7 1 4 9 -7 18 -14 21 -14 7z"
       id="path248" />
    <path
       d="M6100 2699 c0 -23 21 -79 29 -79 14 0 86 69 74 70 -7 0 -13 -4 -13 -9 0 -15 -63 -1 -77 17 -11 15 -12 15 -13 1z"
       id="path250" />
    <path
       d="M6872 2675 c-6 -14 -10 -25 -8 -25 2 0 11 11 20 25 9 14 13 25 8 25 -5 0 -14 -11 -20 -25z"
       id="path252" />
    <path
       d="M7581 2624 c0 -11 3 -14 6 -6 3 7 2 16 -1 19 -3 4 -6 -2 -5 -13z"
       id="path254" />
    <path
       d="M7592 2575 c0 -16 2 -22 5 -12 2 9 2 23 0 30 -3 6 -5 -1 -5 -18z"
       id="path256" />
    <path
       d="M7830 2257 c0 -8 7 -17 15 -21 8 -3 15 -2 15 3 0 5 -7 14 -15 21 -12 10 -15 10 -15 -3z"
       id="path258" />
    <path
       d="M7876 2213 c-6 -14 -5 -15 5 -6 7 7 10 15 7 18 -3 3 -9 -2 -12 -12z"
       id="path260" />
    <path
       d="M7728 2193 c7 -3 16 -2 19 1 4 3 -2 6 -13 5 -11 0 -14 -3 -6 -6z"
       id="path262" />
    <path
       d="M7788 2193 c7 -3 16 -2 19 1 4 3 -2 6 -13 5 -11 0 -14 -3 -6 -6z"
       id="path264" />
    <path
       d="M7836 2169 c-11 -11 -17 -21 -14 -24 2 -3 13 4 23 15 24 26 16 33 -9 9z"
       id="path266" />
    <path
       style="fill:#000000;stroke-width:7.5"
       d="m 6736.0308,5604.8072 -8.4065,47.347 -101.6725,11.4736 -29.4786,55.828 19.3088,67.2643 79.7561,10.0208 104.5658,32.5083 10.207,91.0434 69.6732,11.871 25.4927,-45.3479 -55.2817,-30.9935 -36.9413,-66.9911 -157.0039,-33.0175 -3.9736,-53.891 133.6223,-43.4976 -12.8768,-64.9548 z"
       id="path2142" />
    <path
       style="fill:#000000;stroke-width:7.5"
       d="m 7005.9076,5630.5234 146.8218,13.3485 25.294,8.9653 -12.9015,69.0276 -76.9623,28.0506 -97.9722,13.572 4.0356,77.757 -37.7112,63.7626 -101.4491,12.8767 48.626,-50.1285 50.0913,-23.3941 24.8966,-101.6105 166.6397,-21.3577 -16.9868,-59.429 -124.4831,22.6739 -41.1881,-25.5547 z"
       id="path2144" />
  </g>
</svg>
